<?xml version="1.0" standalone="no"?>
<!DOCTYPE svg PUBLIC "-//W3C//DTD SVG 20010904//EN"
 "http://www.w3.org/TR/2001/REC-SVG-20010904/DTD/svg10.dtd">
<svg version="1.0" xmlns="http://www.w3.org/2000/svg"
 width="300.000000pt" height="257.000000pt" viewBox="0 0 300.000000 257.000000"
 preserveAspectRatio="xMidYMid meet">
<metadata>
Created by potrace 1.10, written by Peter Selinger 2001-2011
</metadata>
<g transform="translate(0.000000,257.000000) scale(0.100000,-0.100000)"
fill="#000000" stroke="none">
<path d="M415 2550 c-66 -9 -2 -19 70 -11 l60 7 -45 4 c-25 3 -63 3 -85 0z"/>
<path d="M1057 2554 c-4 -4 5 -13 19 -21 31 -15 37 -16 30 -4 -4 5 0 12 6 14
8 4 7 6 -4 6 -9 1 -23 3 -30 6 -8 3 -17 3 -21 -1z"/>
<path d="M2632 2548 c-21 -8 -22 -8 53 -13 33 -2 61 -8 63 -14 2 -6 8 -11 13
-11 4 0 6 7 3 15 -5 11 3 14 35 12 29 -1 40 -5 37 -14 -4 -8 3 -13 17 -12 12
0 16 3 9 6 -6 2 -10 9 -6 14 7 12 54 12 54 -1 0 -5 -7 -10 -15 -10 -8 0 -15
-3 -15 -7 0 -5 27 -6 60 -5 51 3 60 7 60 23 0 14 -7 19 -27 20 -217 4 -327 3
-341 -3z"/>
<path d="M891 2546 c7 -7 139 -10 146 -3 3 4 -29 7 -72 7 -43 0 -76 -2 -74 -4z"/>
<path d="M1181 2545 c3 -2 30 -6 61 -7 45 -2 55 -5 51 -18 -4 -12 -1 -11 10 2
11 14 23 17 54 12 25 -3 44 -1 48 5 4 8 -30 11 -111 11 -65 0 -115 -2 -113 -5z"/>
<path d="M1430 2540 c0 -5 6 -7 14 -4 8 3 17 0 21 -5 7 -12 25 -5 25 10 0 5
-13 9 -30 9 -16 0 -30 -4 -30 -10z"/>
<path d="M1500 2534 c0 -9 5 -12 11 -8 7 4 25 7 40 6 16 0 31 4 34 9 4 5 -14
9 -39 9 -35 0 -46 -4 -46 -16z"/>
<path d="M1612 2544 c3 -3 25 -7 49 -9 24 -2 45 -9 47 -15 2 -6 9 -4 17 7 11
14 17 15 37 6 14 -6 31 -7 39 -3 19 11 239 8 239 -3 0 -4 8 -4 18 0 31 15 67
9 64 -10 -2 -9 2 -17 8 -17 5 0 10 7 10 15 0 16 5 17 153 20 49 0 91 -3 93 -7
3 -5 12 -4 19 2 11 9 73 6 84 -5 2 -2 12 0 22 6 12 6 19 6 19 0 0 -6 12 -6 32
0 18 5 34 9 35 9 1 0 -1 -7 -4 -17 -4 -11 -3 -14 5 -9 7 4 12 14 12 22 0 12
-72 14 -502 14 -276 0 -499 -3 -496 -6z"/>
<path d="M2976 2464 c-18 -18 -18 -19 -2 -22 10 -2 20 -1 23 1 2 3 3 13 1 23
-3 16 -4 16 -22 -2z"/>
<path d="M2643 2064 c11 -11 67 -14 67 -4 0 6 -16 10 -37 10 -20 0 -34 -3 -30
-6z"/>
<path d="M2910 1841 c-14 -3 -37 -14 -51 -24 -14 -9 -36 -17 -50 -17 -13 1
-44 -2 -69 -5 -25 -2 -73 -7 -107 -11 -35 -3 -63 -10 -63 -16 0 -7 18 -8 53
-3 28 4 59 7 67 7 8 0 78 8 154 18 77 11 144 17 148 14 4 -3 8 7 8 23 0 15 -4
23 -8 17 -4 -6 -17 -13 -30 -17 -18 -4 -22 -2 -18 9 6 15 5 15 -34 5z"/>
<path d="M2543 1785 c-9 -20 -8 -25 3 -25 8 0 14 9 14 19 0 11 8 22 18 24 14
4 14 5 -3 6 -12 0 -25 -9 -32 -24z"/>
<path d="M2398 1766 c-5 -24 -4 -25 46 -20 28 3 58 8 66 10 27 9 -11 23 -47
17 -18 -3 -39 -1 -47 6 -11 9 -15 7 -18 -13z"/>
<path d="M2348 1758 c-2 -6 -30 -12 -64 -14 -32 -2 -61 -4 -64 -5 -3 -1 -8 -1
-12 0 -5 0 -8 -4 -8 -10 0 -8 20 -9 68 -4 94 9 112 14 105 31 -6 17 -20 18
-25 2z"/>
<path d="M2665 1740 c-132 -15 -270 -31 -307 -35 -70 -7 -80 -15 -52 -42 14
-14 16 -13 21 7 l6 22 13 -23 c12 -22 13 -23 14 -4 0 17 7 21 40 22 22 1 40
-2 40 -8 0 -5 7 -9 15 -9 18 0 20 16 3 23 -7 3 -3 6 10 6 13 1 20 -3 17 -9 -3
-5 1 -10 9 -10 9 0 13 6 10 14 -4 10 8 14 53 14 32 1 72 4 88 8 17 3 44 7 60
7 17 1 33 7 37 12 5 7 14 6 26 -2 11 -6 23 -8 28 -3 14 14 67 20 80 9 8 -7 14
-7 19 1 9 15 25 12 25 -5 0 -8 5 -15 10 -15 6 0 10 7 10 15 0 10 10 15 30 15
17 0 30 5 30 10 0 15 -69 11 -335 -20z"/>
<path d="M2153 1732 c-13 -2 -23 -8 -23 -13 0 -12 47 -12 55 0 7 13 -5 18 -32
13z"/>
<path d="M2042 1720 c-48 -11 -51 -20 -6 -20 55 0 89 10 72 21 -15 10 -21 10
-66 -1z"/>
<path d="M1677 1714 c-11 -11 5 -35 29 -45 13 -4 24 -15 24 -24 0 -19 7 -19
26 -1 17 17 18 26 3 26 -6 0 -25 11 -43 25 -18 14 -35 22 -39 19z"/>
<path d="M2985 1688 c-3 -9 -17 -19 -31 -22 -13 -4 -24 -11 -24 -17 0 -8 4 -8
13 0 8 6 17 8 20 5 9 -10 39 25 34 39 -3 8 -7 7 -12 -5z"/>
<path d="M2080 1674 c-112 -14 -102 -12 -96 -22 3 -5 19 -7 37 -4 20 3 35 0
41 -9 7 -11 8 -9 4 5 -6 17 -3 18 31 12 21 -4 45 -8 53 -8 8 -1 18 -6 22 -12
5 -6 8 -1 8 12 0 17 6 22 28 23 15 1 38 5 52 9 37 12 -64 9 -180 -6z"/>
<path d="M1476 1664 c-3 -7 -15 -15 -28 -17 -13 -3 9 -3 47 0 39 3 75 10 80
15 7 7 -1 8 -22 3 -18 -4 -33 -3 -33 2 0 13 -39 10 -44 -3z"/>
<path d="M1411 1661 c-1 -8 -8 -11 -21 -8 -10 3 -27 -2 -37 -10 -16 -13 -14
-14 21 -9 44 6 50 10 43 28 -4 10 -6 10 -6 -1z"/>
<path d="M1050 1620 l-24 -18 35 3 c19 2 58 4 87 4 28 1 52 5 52 9 0 5 -25 7
-56 4 -34 -3 -59 0 -63 6 -4 7 -15 4 -31 -8z"/>
<path d="M1545 1620 c-11 -5 -46 -9 -77 -9 -36 -1 -58 -5 -58 -12 0 -11 32 -9
129 8 29 5 33 3 28 -11 -4 -10 -3 -15 3 -11 12 7 14 45 3 44 -5 0 -17 -4 -28
-9z"/>
<path d="M1684 1619 c-7 -12 30 -51 60 -62 12 -5 23 -3 28 5 13 22 9 28 -21
28 -21 0 -32 6 -36 20 -7 22 -20 26 -31 9z"/>
<path d="M2400 1621 c0 -6 5 -13 11 -17 8 -4 7 -9 -2 -15 -11 -7 -11 -9 2 -9
10 0 19 10 21 25 4 19 1 25 -13 25 -11 0 -19 -4 -19 -9z"/>
<path d="M820 1615 c0 -24 18 -31 67 -27 29 2 51 8 48 13 -3 5 -26 6 -51 2
-34 -4 -48 -2 -55 8 -5 8 -9 10 -9 4z"/>
<path d="M1330 1590 c0 -5 13 -10 29 -10 17 0 33 5 36 10 4 6 -8 10 -29 10
-20 0 -36 -4 -36 -10z"/>
<path d="M1115 1572 c-13 -13 -3 -23 18 -17 34 11 41 23 13 23 -14 0 -28 -3
-31 -6z"/>
<path d="M973 1563 c-26 -5 -31 -28 -9 -36 10 -4 13 -1 9 9 -3 9 2 14 16 14
15 0 19 -4 14 -17 -4 -11 -3 -14 5 -9 16 10 15 46 0 45 -7 -1 -23 -4 -35 -6z"/>
<path d="M855 1550 c-46 -8 -13 -22 34 -14 23 4 41 10 41 15 0 9 -23 9 -75 -1z"/>
<path d="M1607 1553 c-13 -12 -7 -71 8 -83 15 -12 26 -10 57 12 13 9 22 9 45
-2 15 -8 35 -14 43 -15 9 0 16 -12 18 -29 3 -26 2 -28 -12 -17 -24 20 -32 5
-11 -19 21 -23 52 -25 77 -6 16 12 16 14 -2 33 -10 12 -16 24 -13 27 4 3 1 6
-5 6 -6 0 -9 7 -6 15 4 11 2 13 -9 10 -8 -4 -21 1 -30 9 -9 9 -25 16 -36 16
-12 0 -21 3 -21 8 0 4 -11 7 -24 7 -13 0 -22 -3 -19 -7 8 -14 -34 -8 -46 5 -8
10 -7 17 1 25 7 7 8 12 2 12 -6 0 -14 -3 -17 -7z"/>
<path d="M78 1532 c-4 -14 3 -18 34 -20 23 -1 38 2 38 9 0 6 -6 9 -14 6 -7 -3
-23 1 -34 9 -17 12 -20 12 -24 -4z"/>
<path d="M775 1541 c-22 -3 -35 -9 -30 -12 15 -10 54 -4 67 9 7 7 10 11 8 11
-3 -1 -23 -5 -45 -8z"/>
<path d="M665 1533 c-16 -3 -34 -9 -39 -14 -13 -12 0 -12 41 0 18 5 33 6 35 1
2 -4 9 -2 16 6 14 15 10 16 -53 7z"/>
<path d="M1551 1531 c-7 -5 -11 -13 -8 -18 9 -15 -33 -47 -45 -35 -6 6 -18 7
-27 2 -37 -18 -106 -29 -113 -17 -6 9 -8 9 -8 -1 0 -7 8 -16 17 -19 13 -5 9
-9 -18 -19 -19 -7 -44 -13 -56 -13 -13 -1 -23 -7 -23 -14 0 -7 -25 -27 -55
-45 -30 -18 -54 -36 -54 -40 3 -21 -3 -31 -23 -34 -13 -2 -22 -9 -21 -15 2 -7
-7 -17 -18 -23 -12 -7 -18 -18 -15 -26 4 -10 -7 -20 -33 -31 -24 -10 -37 -22
-34 -30 3 -7 0 -13 -6 -13 -6 0 -11 -7 -11 -15 0 -8 -7 -15 -15 -15 -14 0 -20
-12 -16 -33 1 -4 -15 -15 -36 -23 -28 -12 -33 -18 -22 -25 12 -8 12 -10 0 -18
-8 -5 -11 -16 -8 -25 5 -12 0 -20 -16 -26 -12 -5 -16 -9 -8 -9 10 -1 12 -9 8
-30 -5 -24 -2 -31 14 -36 19 -7 20 -8 3 -26 -16 -17 -16 -19 -1 -19 10 0 17
-4 17 -10 0 -5 -5 -10 -11 -10 -5 0 -7 -5 -4 -10 4 -6 11 -8 16 -5 5 4 7 -8 5
-27 -2 -21 -9 -32 -17 -30 -7 2 -29 -4 -50 -13 -39 -18 -76 -16 -72 3 5 23
-15 12 -21 -11 -5 -21 -11 -24 -53 -22 -27 1 -58 -4 -70 -13 -12 -7 -26 -11
-31 -8 -5 3 -24 1 -41 -4 -29 -8 -31 -7 -26 11 4 13 2 19 -9 19 -9 0 -16 -8
-16 -19 0 -25 -37 -34 -49 -13 -14 25 -23 8 -12 -22 6 -14 16 -26 23 -26 7 0
74 12 148 26 74 14 152 27 173 29 20 3 46 9 57 15 11 6 42 11 70 11 43 1 50 4
45 18 -11 28 -45 194 -45 220 0 36 26 75 111 168 41 44 95 104 121 134 61 69
129 119 204 150 32 13 70 29 82 35 24 12 39 10 110 -16 24 -9 32 -18 32 -36 0
-26 10 -30 28 -12 19 19 14 38 -13 48 -28 11 -40 46 -31 90 6 31 1 36 -23 21z"/>
<path d="M1961 1509 c-16 -37 -9 -48 9 -14 7 14 17 25 22 25 5 0 6 5 3 10 -10
17 -20 11 -34 -21z"/>
<path d="M2855 1510 c-3 -5 9 -13 27 -18 26 -7 34 -5 39 7 9 22 3 26 -15 12
-10 -8 -16 -9 -21 -1 -8 13 -22 13 -30 0z"/>
<path d="M360 1500 c-10 -7 2 -9 42 -7 32 1 58 5 58 10 0 10 -82 8 -100 -3z"/>
<path d="M2650 1483 c-19 -3 -39 -9 -45 -14 -7 -7 3 -8 30 -3 22 4 48 7 58 6
9 0 17 3 17 9 0 5 -6 8 -12 7 -7 0 -29 -3 -48 -5z"/>
<path d="M2425 1451 c-11 -5 -23 -7 -27 -4 -5 2 -8 -2 -8 -10 0 -7 7 -14 15
-14 8 0 12 4 9 9 -3 4 6 8 20 8 14 0 28 5 31 10 7 12 -12 12 -40 1z"/>
<path d="M1670 1402 c0 -12 14 -36 30 -54 17 -17 28 -38 26 -45 -8 -19 15 -16
29 4 14 19 45 11 45 -13 0 -10 -5 -14 -15 -10 -10 4 -15 -1 -15 -15 0 -13 8
-23 20 -26 30 -8 19 -27 -18 -31 -28 -3 -36 3 -64 42 -17 25 -35 46 -40 46 -4
0 -5 6 -2 14 6 17 -32 41 -41 26 -3 -5 1 -25 9 -45 17 -41 13 -61 -15 -68 -19
-5 -27 -37 -9 -37 6 0 10 -7 10 -16 0 -9 9 -18 20 -21 23 -6 50 -51 50 -82 0
-25 15 -35 29 -18 8 10 6 20 -7 38 -9 13 -15 34 -14 46 2 13 -2 23 -9 23 -18
0 -37 31 -31 52 6 23 17 23 42 -2 11 -11 16 -20 10 -20 -5 0 -10 -5 -10 -11 0
-5 4 -8 9 -4 5 3 13 0 16 -5 5 -8 11 -6 18 4 7 8 24 18 40 22 25 6 27 4 27
-22 1 -28 1 -28 16 -9 10 13 13 31 9 52 -4 24 0 37 18 57 15 16 31 24 40 20
23 -8 66 -79 65 -105 -2 -37 -35 -161 -52 -194 -9 -17 -16 -46 -16 -66 0 -19
-11 -63 -25 -97 -30 -74 -31 -82 -5 -75 12 3 20 14 20 27 0 12 7 32 16 44 16
23 44 30 44 11 0 -5 4 -8 9 -4 6 3 14 -2 19 -11 5 -9 13 -14 18 -12 5 1 10 -7
12 -20 3 -17 -2 -25 -17 -29 -12 -3 -21 -9 -21 -14 0 -13 13 -11 38 7 18 12
23 13 26 2 2 -7 11 -35 20 -62 21 -66 21 -122 0 -130 -23 -9 -9 -20 27 -22 17
-1 40 -11 53 -23 27 -25 58 -27 97 -4 26 15 36 16 96 4 38 -7 79 -12 93 -12
31 1 95 44 111 73 12 22 11 22 -8 5 -11 -9 -23 -17 -27 -17 -4 0 -19 -9 -33
-20 -28 -22 -73 -26 -104 -9 -26 14 -139 19 -162 7 -12 -6 -25 -4 -39 7 -21
14 -21 15 -3 15 19 1 19 1 2 14 -10 8 -28 11 -40 8 -19 -5 -20 -3 -9 10 9 11
10 18 2 23 -6 4 -8 15 -5 26 15 55 16 64 6 49 -8 -12 -12 -10 -19 10 -7 17 -6
30 2 39 9 11 7 13 -12 7 -16 -6 -24 -3 -29 11 -4 10 -9 20 -13 23 -3 3 -13 21
-22 40 -17 34 -17 34 13 52 16 10 41 36 56 58 24 34 32 40 56 35 15 -2 27 0
27 4 0 5 3 16 6 25 4 11 1 16 -10 16 -9 0 -16 -4 -16 -10 0 -5 -9 -10 -21 -10
-16 0 -19 4 -14 23 6 18 5 20 -6 10 -24 -23 -49 -16 -49 15 0 62 -2 72 -9 72
-5 0 -16 -11 -25 -25 -15 -23 -15 -25 4 -35 24 -13 26 -30 4 -30 -24 0 -7 -19
32 -35 30 -12 33 -17 23 -32 -6 -10 -31 -31 -55 -46 -24 -16 -44 -35 -44 -42
0 -21 -15 -26 -44 -12 -29 14 -32 25 -12 52 8 11 12 25 9 32 -6 16 14 71 35
95 12 15 12 20 2 33 -18 22 6 68 32 62 11 -3 18 0 18 8 0 8 -10 15 -22 17 -22
3 -21 5 10 24 28 18 39 20 81 11 66 -13 98 -47 111 -117 6 -30 8 -67 5 -82 -4
-14 -2 -28 2 -31 5 -3 44 3 88 12 44 10 114 24 155 31 41 7 100 18 130 26 30
7 107 22 170 33 114 19 198 37 233 47 9 3 17 12 17 21 0 11 -7 14 -27 10 -16
-3 -68 -12 -118 -21 -49 -9 -112 -20 -140 -26 -27 -6 -68 -13 -89 -16 -21 -2
-42 -7 -46 -9 -4 -3 -56 -12 -115 -21 -59 -8 -126 -21 -149 -28 -44 -12 -86
-10 -86 5 0 5 4 9 9 9 16 0 20 41 5 47 -8 3 -13 12 -10 20 3 7 -1 16 -9 20
-10 3 -13 12 -10 24 5 14 1 19 -14 19 -14 0 -21 6 -21 20 0 11 -4 20 -10 20
-5 0 -10 7 -10 15 0 10 -8 13 -27 10 -56 -9 -148 -17 -153 -14 -3 2 -4 8 -2
14 2 5 -4 15 -14 22 -10 7 -15 20 -11 33 4 14 0 20 -13 20 -9 0 -29 9 -44 21
-25 20 -26 20 -26 1 0 -11 -7 -25 -15 -32 -11 -9 -19 -8 -39 7 -14 10 -26 21
-26 26 0 4 -13 7 -29 7 -23 0 -36 9 -60 42 -26 35 -31 38 -31 20z"/>
<path d="M1883 1406 c-25 -12 -27 -15 -14 -35 13 -20 38 -7 43 23 6 28 4 29
-29 12z"/>
<path d="M1937 1393 c-12 -21 -16 -63 -7 -63 10 0 30 41 30 61 0 11 -17 12
-23 2z"/>
<path d="M2985 1365 c-5 -2 -31 -6 -57 -10 -29 -4 -47 -11 -45 -18 1 -7 -7
-11 -22 -9 -15 2 -21 0 -17 -7 11 -17 56 -13 63 5 3 8 12 13 20 10 8 -3 24 -1
35 5 16 8 23 8 29 -2 6 -10 9 -8 9 9 0 12 -1 22 -2 21 -2 0 -7 -2 -13 -4z"/>
<path d="M1537 1342 c-18 -20 -22 -42 -8 -42 8 0 41 43 41 55 0 11 -18 4 -33
-13z"/>
<path d="M2655 1313 c-11 -3 -24 -10 -28 -17 -6 -8 -10 -8 -13 0 -6 14 -66 5
-61 -9 4 -14 74 -19 82 -6 4 5 16 7 28 4 13 -4 34 -2 47 4 18 7 20 10 8 10
-10 1 -18 6 -18 11 0 10 -11 11 -45 3z"/>
<path d="M2480 1269 c0 -17 4 -20 23 -15 12 3 27 6 34 6 7 0 10 7 7 15 -4 8
-10 15 -16 15 -5 0 -6 -4 -3 -10 3 -5 -1 -10 -9 -10 -9 0 -16 5 -16 10 0 6 -4
10 -10 10 -5 0 -10 -10 -10 -21z"/>
<path d="M2910 1249 c-44 -12 -56 -18 -36 -18 36 -1 106 19 106 31 0 4 -1 7
-2 7 -2 -1 -32 -10 -68 -20z"/>
<path d="M1484 1245 c-7 -17 -38 -30 -81 -34 -19 -2 -16 -28 3 -35 24 -9 70
14 88 45 9 15 16 30 16 33 0 12 -21 5 -26 -9z"/>
<path d="M2650 1240 c0 -5 -7 -7 -15 -4 -8 4 -15 1 -15 -6 0 -8 8 -10 23 -5
12 4 32 6 45 6 12 0 22 4 22 9 0 6 -13 10 -30 10 -16 0 -30 -4 -30 -10z"/>
<path d="M2565 1231 c-3 -6 -1 -11 5 -11 8 0 8 -6 0 -21 -13 -23 -8 -34 12
-26 8 2 13 17 13 33 -2 29 -18 43 -30 25z"/>
<path d="M2455 1213 c-27 -2 -54 -9 -60 -14 -7 -7 4 -8 30 -5 22 2 52 5 68 5
15 1 27 6 27 11 0 6 -3 9 -7 8 -5 -1 -30 -3 -58 -5z"/>
<path d="M2970 1213 c-45 -15 -45 -15 -22 -24 27 -10 52 -2 52 17 0 15 -5 16
-30 7z"/>
<path d="M2654 1198 c-3 -4 8 -8 25 -8 16 0 32 4 36 9 3 5 -8 9 -25 9 -17 -1
-33 -5 -36 -10z"/>
<path d="M2780 1169 c0 -7 -9 -9 -22 -6 -29 8 -113 -4 -98 -13 9 -6 9 -9 0
-15 -7 -4 -16 -2 -21 6 -6 11 -18 11 -67 1 -32 -7 -68 -12 -80 -12 -11 0 -24
-5 -28 -12 -5 -8 0 -9 14 -6 15 4 22 2 22 -8 0 -14 37 -12 90 6 14 5 32 8 40
9 8 0 24 2 35 5 11 2 27 5 35 6 11 1 9 4 -5 10 -14 7 -4 8 32 5 29 -2 55 0 57
4 3 4 19 6 36 3 25 -3 29 -1 24 12 -7 19 -20 21 -28 4 -5 -10 -7 -10 -12 0 -7
15 -24 16 -24 1z"/>
<path d="M1233 1141 c-18 -8 -33 -18 -33 -21 0 -12 49 1 61 16 17 21 9 22 -28
5z"/>
<path d="M1840 1134 c0 -9 -30 -47 -66 -85 -61 -62 -67 -73 -72 -118 -3 -32
-11 -56 -23 -67 -18 -16 -20 -16 -39 1 -12 11 -20 31 -20 51 0 38 -14 51 -35
34 -11 -9 -15 -9 -15 -1 0 6 -4 11 -10 11 -5 0 -7 -7 -4 -15 4 -8 12 -15 19
-15 21 0 24 -22 8 -53 -8 -16 -12 -35 -9 -42 2 -7 2 -16 -2 -20 -4 -4 -7 -23
-7 -43 0 -21 -4 -48 -9 -61 -6 -18 -5 -22 5 -18 8 2 13 10 11 16 -1 7 2 10 8
6 5 -3 13 2 17 11 4 10 2 19 -5 22 -8 2 -8 13 3 39 13 31 13 36 -1 51 -12 12
-13 17 -4 20 7 3 15 1 19 -4 3 -5 18 -15 33 -23 21 -11 27 -20 24 -40 -4 -38
-16 -61 -32 -61 -17 0 -18 -17 -2 -22 9 -3 8 -9 -5 -22 -9 -10 -17 -26 -17
-37 0 -15 -5 -18 -24 -15 -14 2 -27 -1 -29 -7 -2 -7 -7 -9 -11 -5 -4 3 -3 15
3 27 15 27 -5 39 -27 17 -13 -13 -14 -19 -5 -24 19 -12 -71 -35 -106 -27 -17
4 -31 11 -31 16 0 5 -11 9 -25 9 -30 0 -33 -20 -5 -27 11 -3 20 -10 20 -15 0
-14 77 -88 91 -88 7 0 30 20 53 44 33 35 50 45 89 50 32 5 47 12 47 22 0 9 11
48 24 87 13 40 32 108 42 152 9 44 25 89 35 100 9 11 22 31 29 45 7 14 19 28
26 33 12 7 74 93 74 103 0 2 -9 4 -20 4 -12 0 -20 -7 -20 -16z m-340 -553 c-6
-12 -17 -21 -25 -21 -8 0 -15 -5 -15 -12 0 -9 -3 -9 -11 -1 -18 18 -2 43 26
43 14 0 25 5 25 12 0 6 3 9 6 6 3 -4 1 -16 -6 -27z"/>
<path d="M1329 1112 c-13 -10 -36 -24 -50 -31 -15 -7 -50 -33 -77 -57 -28 -24
-56 -44 -64 -44 -25 0 -67 -48 -61 -70 9 -33 20 -32 27 2 5 23 9 29 17 21 8
-8 7 -20 -5 -45 -15 -29 -16 -44 -4 -140 7 -60 15 -108 18 -108 3 0 31 23 63
50 32 28 63 50 67 50 11 0 0 32 -13 42 -6 3 -23 -11 -39 -33 -30 -41 -53 -51
-55 -21 0 9 -4 42 -9 72 -13 79 -7 113 17 107 10 -3 19 -1 19 4 0 5 -7 9 -16
9 -14 0 -14 3 -4 15 7 8 21 15 31 15 11 0 19 4 19 10 0 5 -8 6 -17 3 -16 -6
-16 -5 -3 8 8 8 23 18 33 22 9 3 17 10 17 15 0 11 58 37 65 30 3 -3 -6 -17
-20 -32 -14 -16 -25 -38 -24 -54 0 -25 1 -26 12 -8 7 11 27 36 45 56 17 21 32
47 32 59 0 14 9 25 28 32 26 10 26 11 8 25 -25 18 -28 18 -57 -4z"/>
<path d="M2394 1105 c-4 -8 -10 -13 -14 -10 -4 3 -10 -2 -14 -10 -8 -21 24
-19 52 4 27 24 28 31 2 31 -11 0 -23 -7 -26 -15z"/>
<path d="M2329 1093 c-1 -5 -1 -12 1 -18 1 -5 -4 -4 -11 3 -19 18 -36 15 -42
-8 -6 -22 -6 -21 51 -5 12 3 22 13 22 21 0 14 -19 20 -21 7z"/>
<path d="M1523 1076 c-38 -18 -26 -28 25 -20 53 7 62 11 62 25 0 12 -59 9 -87
-5z"/>
<path d="M2958 1053 c-22 -5 -23 -17 -4 -32 12 -10 17 -8 25 8 18 32 16 34
-21 24z"/>
<path d="M2886 1041 c-3 -4 5 -17 17 -29 l22 -21 1 30 c1 22 -3 29 -17 29 -10
0 -20 -4 -23 -9z"/>
<path d="M2828 1033 c-22 -6 -23 -39 -2 -51 19 -10 74 -3 74 10 0 5 -13 7 -30
3 -29 -6 -30 -5 -24 19 3 14 5 25 3 25 -2 -1 -12 -3 -21 -6z"/>
<path d="M1602 1018 c-7 -7 -12 -21 -12 -32 0 -18 2 -17 23 5 30 31 20 58 -11
27z"/>
<path d="M2731 1006 c-9 -10 -8 -15 4 -20 8 -3 15 -12 15 -21 0 -16 15 -20 24
-6 8 12 -11 61 -23 61 -4 0 -14 -6 -20 -14z"/>
<path d="M2652 982 c3 -10 -1 -23 -9 -30 -16 -16 -17 -36 -1 -26 7 5 21 9 30
9 25 2 35 15 20 24 -7 4 -10 15 -6 24 5 13 1 17 -16 17 -16 0 -21 -5 -18 -18z"/>
<path d="M2565 970 c-3 -6 0 -13 9 -16 8 -3 12 -12 9 -20 -3 -9 2 -14 16 -14
22 0 28 14 11 25 -5 3 -7 12 -3 20 6 17 -32 21 -42 5z"/>
<path d="M2390 952 c0 -10 5 -23 10 -28 8 -8 6 -15 -4 -23 -20 -16 -39 -4 -33
20 3 11 0 19 -6 19 -7 0 -5 5 3 10 13 8 13 10 -2 10 -9 0 -19 -4 -23 -10 -3
-5 -12 -7 -20 -3 -20 7 -19 -11 0 -27 14 -12 14 -15 -1 -31 -22 -24 -13 -34
16 -19 12 7 31 9 43 6 29 -7 53 9 65 43 7 20 7 32 -1 40 -17 17 -47 13 -47 -7z"/>
<path d="M2491 961 c-7 -5 -10 -14 -6 -20 4 -7 1 -19 -6 -27 -18 -21 -9 -24
39 -11 44 12 56 27 22 27 -14 0 -20 6 -18 16 4 20 -12 27 -31 15z"/>
<path d="M2164 909 c-1 -27 -6 -55 -13 -62 -13 -13 -15 -57 -2 -57 6 0 7 -16
4 -34 -4 -24 -1 -40 10 -50 21 -21 30 -20 19 2 -14 25 -22 118 -12 128 5 5 9
29 10 54 2 60 1 70 -7 70 -5 0 -8 -23 -9 -51z"/>
<path d="M2905 951 c-11 -5 -44 -12 -72 -16 -29 -4 -55 -11 -59 -16 -8 -13 23
-11 91 7 33 8 78 19 100 23 l40 8 -40 1 c-22 0 -49 -3 -60 -7z"/>
<path d="M2271 934 c-1 -16 -37 -24 -49 -12 -7 7 -10 -5 -10 -36 1 -43 17 -68
19 -28 0 10 3 12 6 5 8 -21 23 -15 23 10 0 13 5 28 11 34 6 6 9 17 6 25 -3 7
-6 8 -6 2z"/>
<path d="M2945 928 c-22 -6 -57 -17 -78 -24 -21 -8 -43 -12 -48 -8 -6 3 -22 1
-37 -4 -15 -5 -61 -15 -102 -22 -41 -7 -95 -18 -120 -25 -25 -7 -74 -18 -110
-25 -120 -22 -161 -32 -174 -45 -16 -16 -56 -8 -56 10 0 8 12 16 28 19 15 2
72 13 127 22 55 10 104 21 109 26 14 12 -8 10 -94 -7 -41 -8 -100 -20 -130
-26 l-56 -10 -2 -44 -2 -44 33 6 c17 3 58 14 89 24 32 11 69 19 83 19 14 0 25
5 25 10 0 6 21 10 47 10 30 0 53 6 65 17 16 14 21 15 27 4 8 -12 99 4 256 45
6 2 39 8 74 14 78 13 101 25 101 50 0 11 -3 19 -7 19 -5 -1 -26 -6 -48 -11z"/>
<path d="M1300 901 c0 -23 16 -55 40 -80 17 -18 99 -46 108 -37 6 7 7 6 -42
31 -24 12 -48 35 -61 60 -26 45 -45 56 -45 26z"/>
<path d="M2708 913 c-10 -2 -18 -8 -18 -12 0 -10 59 -1 66 10 5 9 -18 10 -48
2z"/>
<path d="M1501 897 c-6 -6 -11 -16 -11 -22 0 -7 -9 -20 -20 -30 -11 -10 -20
-21 -20 -25 0 -14 33 -21 44 -10 7 7 6 10 -4 10 -8 0 0 13 18 31 18 17 32 35
32 39 0 14 -27 19 -39 7z"/>
<path d="M2601 889 c-64 -12 -65 -22 -1 -14 56 7 105 25 65 24 -11 -1 -40 -5
-64 -10z"/>
<path d="M1286 798 c4 -13 7 -30 6 -40 -1 -24 36 -54 50 -40 9 9 5 18 -15 38
-15 15 -27 35 -27 45 0 11 -5 19 -11 19 -6 0 -8 -9 -3 -22z"/>
<path d="M1885 746 c-50 -12 -50 -12 -55 -59 -6 -50 1 -57 36 -33 11 8 46 17
79 21 72 9 74 10 68 34 -4 16 -10 17 -41 9 -65 -16 -102 -19 -102 -8 0 13 48
32 61 24 5 -3 9 2 9 10 0 9 -1 15 -2 15 -2 -1 -25 -7 -53 -13z"/>
<path d="M1477 728 c-7 -27 -3 -32 18 -24 18 6 17 37 -1 43 -6 2 -14 -6 -17
-19z"/>
<path d="M1370 715 c-21 -22 -21 -25 -6 -46 13 -19 16 -20 22 -6 3 9 3 21 -1
27 -4 6 1 17 11 24 10 8 13 15 7 19 -6 4 -20 -4 -33 -18z"/>
<path d="M969 693 c-14 -3 -17 -16 -16 -64 0 -61 15 -76 28 -28 7 23 7 23 10
-6 3 -44 -1 -79 -12 -89 -5 -6 -9 0 -9 18 0 21 -4 26 -17 22 -33 -10 -158 -38
-183 -40 -19 -2 -26 -10 -28 -30 -3 -27 -27 -32 -27 -5 0 13 -8 21 -20 18 -3
-1 -9 -3 -15 -4 -5 -1 -15 -3 -20 -4 -6 0 -8 -12 -4 -26 5 -19 2 -25 -11 -25
-13 0 -16 6 -11 25 6 23 4 24 -26 18 -123 -24 -133 -28 -133 -51 0 -12 -4 -21
-10 -20 -5 0 -8 10 -7 21 3 16 0 19 -20 14 -12 -4 -29 -7 -35 -7 -8 0 -13 -13
-13 -30 0 -16 -4 -30 -10 -30 -5 0 -10 14 -10 31 0 20 -4 29 -12 26 -7 -2 -12
-16 -10 -31 2 -21 -1 -26 -18 -26 -17 0 -19 3 -10 19 15 28 2 31 -70 16 -35
-7 -68 -11 -72 -9 -11 7 -23 -19 -19 -45 2 -16 -2 -22 -10 -19 -8 3 -14 14
-14 26 0 12 -4 22 -10 22 -5 0 -10 -12 -10 -27 0 -14 -6 -28 -12 -30 -12 -4
-17 8 -14 35 1 6 -5 12 -13 12 -12 0 -14 -7 -9 -31 5 -25 3 -31 -8 -27 -20 7
-26 222 -7 235 7 4 47 13 88 20 120 18 313 53 317 57 2 2 1 11 -3 20 -4 11
-12 15 -23 10 -9 -4 -33 -8 -53 -8 -20 -1 -40 -4 -44 -8 -11 -11 -24 -10 -24
2 0 6 10 15 23 20 16 6 18 9 5 9 -10 1 -27 -13 -40 -29 -15 -21 -24 -26 -29
-18 -7 10 -11 10 -21 0 -17 -17 -41 -15 -35 3 8 20 -9 28 -30 16 -17 -10 -17
-10 0 -11 9 0 17 -7 17 -15 0 -8 -9 -15 -19 -15 -11 0 -27 -3 -36 -6 -11 -5
-18 0 -22 15 -6 23 -8 24 -38 11 -18 -8 -18 -9 5 -9 31 -1 14 -21 -32 -36
l-33 -10 0 -153 c0 -90 -4 -156 -10 -160 -12 -8 -13 -37 -2 -48 11 -11 9 -26
-3 -19 -6 3 -10 -1 -10 -9 0 -8 4 -18 10 -21 5 -3 10 -11 10 -16 0 -6 -4 -8
-8 -5 -5 3 -9 -1 -9 -9 0 -8 3 -15 7 -15 3 0 3 -25 0 -55 -5 -49 -4 -55 12
-55 15 0 18 8 18 45 0 34 5 47 20 55 11 6 23 23 26 38 4 15 11 33 17 40 5 7 8
15 5 18 -3 2 -15 -16 -27 -41 -12 -25 -26 -45 -31 -45 -15 0 -13 153 2 168 7
7 24 12 40 12 15 0 53 7 85 16 32 9 85 21 118 26 33 5 83 14 110 19 28 5 111
20 185 34 223 41 381 75 400 85 10 6 28 10 39 10 25 0 25 2 6 60 -8 25 -20 64
-25 87 -8 31 -15 41 -25 37 -8 -4 -15 -2 -15 4 0 6 6 12 13 15 17 6 6 14 -14
10z m-99 -209 c0 -9 -11 -14 -30 -15 -42 -2 -47 -3 -55 -11 -12 -11 -34 3 -28
18 3 9 13 12 24 9 11 -4 19 -2 19 5 0 7 8 9 19 5 11 -3 22 -1 26 5 8 13 25 3
25 -16z m-662 -121 c-5 -25 -28 -28 -28 -4 0 12 6 21 16 21 9 0 14 -7 12 -17z"/>
<path d="M907 659 c-4 -14 -11 -20 -20 -16 -8 3 -20 0 -26 -6 -11 -11 -12 -9
-15 13 0 6 -5 9 -9 8 -5 -2 -10 -29 -12 -61 -2 -40 1 -57 9 -54 6 2 12 20 14
40 2 20 8 37 13 37 6 0 9 -14 7 -31 -2 -17 2 -30 7 -30 6 1 10 9 11 19 2 37 4
43 14 37 6 -3 10 -17 10 -31 0 -13 4 -24 8 -24 5 0 9 27 9 60 1 60 -10 79 -20
39z"/>
<path d="M2133 655 c4 -9 7 -19 7 -21 0 -2 11 -4 24 -4 17 0 28 -9 38 -30 17
-39 28 -38 28 4 0 39 -26 69 -40 46 -7 -11 -13 -10 -36 5 -25 16 -27 16 -21 0z"/>
<path d="M780 635 c0 -8 -6 -15 -14 -15 -8 0 -22 -3 -32 -7 -14 -5 -16 -3 -11
11 5 13 3 17 -11 14 -9 -2 -15 -11 -13 -19 3 -8 4 -36 3 -62 -1 -28 3 -45 8
-42 6 4 10 18 10 33 0 15 5 34 10 42 7 11 10 4 10 -27 0 -44 19 -62 21 -20 3
52 11 66 18 29 3 -18 11 -31 16 -30 6 2 8 10 6 18 -2 8 -3 32 -2 53 0 20 -4
37 -9 37 -6 0 -10 -7 -10 -15z"/>
<path d="M650 615 c0 -8 -4 -15 -10 -15 -5 0 -10 5 -10 10 0 6 -4 10 -8 10
-14 0 -8 -113 7 -118 11 -4 12 3 7 31 -4 19 -2 38 3 41 5 3 12 -10 15 -29 10
-54 21 -42 22 25 1 44 -3 60 -13 60 -7 0 -13 -7 -13 -15z"/>
<path d="M570 550 c0 -33 4 -60 9 -60 10 0 23 84 15 105 -13 33 -24 12 -24
-45z"/>
<path d="M1245 601 c-8 -13 3 -18 58 -26 49 -8 63 0 25 14 -45 16 -77 21 -83
12z"/>
<path d="M1884 599 c-4 -6 -20 -9 -39 -6 -32 5 -32 5 -54 -65 -28 -92 -61
-168 -72 -168 -11 0 -12 -27 -1 -33 4 -3 28 -2 55 3 48 7 56 3 35 -18 -15 -15
16 -29 35 -15 6 5 68 8 137 7 133 -2 190 3 190 17 0 4 -15 9 -32 11 l-32 3 29
19 c26 18 51 20 204 23 160 2 211 10 182 27 -6 4 -68 6 -138 5 -71 -1 -147 -1
-169 0 -33 1 -48 -4 -72 -27 -42 -39 -94 -52 -201 -51 -106 1 -101 -6 -98 126
2 87 18 119 63 128 10 2 21 4 24 4 7 2 -23 21 -32 21 -4 0 -10 -5 -14 -11z
m-62 -179 c-7 -48 -19 -62 -43 -50 -16 9 -17 13 -3 38 8 15 19 41 25 57 10 27
12 28 19 10 4 -11 5 -36 2 -55z"/>
<path d="M480 580 c0 -24 -15 -26 -24 -3 -5 12 -10 13 -18 5 -8 -8 -9 -18 -1
-35 7 -15 8 -29 1 -41 -11 -19 -4 -46 12 -46 5 0 10 18 10 39 0 22 5 43 10 46
6 4 10 -10 10 -34 0 -23 5 -41 10 -41 6 0 10 18 10 39 0 22 5 43 10 46 6 4 10
-10 10 -34 0 -29 4 -41 14 -41 12 0 14 12 11 53 -2 28 -4 55 -5 60 0 14 -20 7
-20 -8 0 -8 -5 -15 -11 -15 -6 0 -9 7 -5 15 3 9 0 15 -9 15 -8 0 -15 -9 -15
-20z"/>
<path d="M2648 593 c-22 -5 -24 -23 -3 -24 8 -1 20 -2 27 -3 7 0 18 -12 24
-24 6 -13 14 -20 18 -14 3 5 -4 18 -14 30 -11 12 -20 26 -20 32 0 10 -3 11
-32 3z"/>
<path d="M2573 583 c-23 -4 -50 -30 -41 -39 7 -6 77 28 78 39 0 4 -3 6 -7 6
-5 -1 -18 -4 -30 -6z"/>
<path d="M385 558 c-6 -20 -8 -20 -12 -5 -7 28 -29 20 -27 -10 1 -16 2 -43 3
-60 2 -47 21 -41 21 7 0 22 5 40 10 40 6 0 10 -19 10 -42 0 -39 1 -41 17 -26
12 13 14 20 5 31 -7 8 -9 28 -5 50 6 41 -10 52 -22 15z"/>
<path d="M297 540 c-3 -11 -1 -23 4 -26 5 -3 7 -22 3 -41 -5 -28 -4 -35 7 -31
17 6 23 39 14 84 -7 38 -20 44 -28 14z"/>
<path d="M2865 552 c-3 -3 -5 -11 -5 -19 0 -17 21 -17 45 1 17 12 17 13 -8 18
-15 3 -29 3 -32 0z"/>
<path d="M211 487 c-1 -41 2 -67 9 -67 5 0 10 18 10 40 0 41 19 57 21 18 2
-42 4 -48 14 -48 8 0 11 51 6 113 -2 14 -21 7 -21 -8 0 -20 -10 -19 -25 2 -10
13 -12 4 -14 -50z"/>
<path d="M2793 540 c-18 -4 -33 -5 -33 -2 0 3 -6 -3 -14 -13 -20 -28 -9 -39
20 -21 13 9 32 16 43 16 21 0 37 16 24 23 -5 2 -23 1 -40 -3z"/>
<path d="M163 475 c1 -75 19 -84 27 -14 7 54 2 79 -15 79 -9 0 -12 -19 -12
-65z"/>
<path d="M114 515 c3 -8 1 -15 -4 -15 -17 0 -25 5 -22 13 1 4 -2 7 -7 7 -12 0
-17 -34 -12 -87 4 -53 21 -46 21 8 0 21 5 39 10 39 6 0 10 -18 10 -40 0 -28 4
-40 14 -40 11 0 14 15 13 65 -2 47 -6 65 -16 65 -8 0 -11 -6 -7 -15z"/>
<path d="M2520 491 c0 -6 5 -11 10 -11 6 0 10 -7 10 -15 0 -20 16 -19 24 1 8
20 8 19 -21 28 -14 5 -23 3 -23 -3z"/>
<path d="M1173 458 c2 -7 12 -38 22 -69 l18 -56 81 -12 c44 -6 118 -13 163
-15 74 -4 83 -3 88 15 4 10 13 19 21 19 8 0 14 4 14 9 0 6 -13 6 -32 1 -50
-14 -157 -18 -215 -9 -65 10 -95 31 -122 87 -11 23 -26 42 -32 42 -6 0 -9 -6
-6 -12z"/>
<path d="M2900 459 c0 -13 -33 -19 -45 -9 -10 8 -16 7 -22 -3 -15 -25 -73 -50
-88 -37 -10 9 -16 7 -24 -8 -8 -14 -19 -19 -42 -17 -17 1 -45 -5 -62 -13 -23
-11 -34 -12 -48 -4 -16 10 -21 7 -35 -23 -12 -25 -23 -35 -39 -35 -13 0 -26 6
-29 13 -5 9 -7 9 -12 -1 -3 -7 -16 -22 -28 -34 l-21 -20 45 7 c25 4 59 15 76
25 17 10 50 21 73 25 31 5 41 11 37 21 -3 8 1 14 9 14 8 0 15 -4 15 -10 0 -5
16 -1 35 10 20 11 46 20 58 20 13 0 40 9 62 20 22 11 48 20 59 20 11 0 44 6
73 12 69 16 71 37 3 35 -27 -1 -50 -5 -50 -8z"/>
<path d="M830 359 c0 -6 -11 -25 -24 -42 -35 -48 -39 -57 -23 -57 7 0 21 16
30 35 9 19 21 35 27 35 5 0 10 9 10 20 0 11 -4 20 -10 20 -5 0 -10 -5 -10 -11z"/>
<path d="M940 346 c0 -13 -9 -35 -21 -50 -25 -32 -11 -35 19 -3 22 24 30 77
12 77 -5 0 -10 -11 -10 -24z"/>
<path d="M737 343 c-11 -10 -8 -43 3 -43 12 0 31 35 23 44 -8 8 -18 8 -26 -1z"/>
<path d="M860 326 c0 -7 -7 -19 -15 -26 -8 -7 -15 -17 -15 -23 0 -6 7 -1 16
11 15 21 42 32 29 12 -3 -5 1 -10 9 -10 19 0 21 21 4 38 -16 16 -28 15 -28 -2z"/>
<path d="M1602 309 c-12 -19 -11 -20 10 -17 13 2 23 9 23 17 0 23 -19 23 -33
0z"/>
<path d="M1035 280 c-21 -22 -33 -40 -26 -40 14 0 81 60 81 72 0 17 -17 7 -55
-32z"/>
<path d="M2137 245 c-19 -27 -46 -32 -65 -13 -9 9 -13 7 -18 -5 -3 -9 -11 -17
-16 -17 -6 0 -16 -8 -23 -17 -8 -10 -28 -17 -51 -18 -22 -1 -46 -4 -54 -7 -37
-15 -73 -18 -86 -7 -11 9 -18 7 -31 -9 -25 -29 -66 -38 -82 -18 -20 23 -40 19
-47 -9 -3 -14 -11 -25 -18 -25 -6 0 -20 -3 -31 -6 -15 -4 -25 3 -38 25 -24 40
-33 39 -41 -4 -8 -41 -47 -65 -72 -44 -11 9 -14 8 -14 -5 0 -23 -19 -20 -69
14 -54 37 -67 30 -20 -10 48 -42 65 -44 155 -22 43 11 98 23 122 27 24 4 45
12 48 19 3 7 18 10 38 8 19 -2 49 3 67 11 19 9 70 21 114 28 44 6 98 20 120
29 53 24 139 50 164 50 27 0 26 7 -1 31 -29 23 -29 23 -51 -6z"/>
<path d="M1068 248 c-3 -8 19 -19 61 -30 36 -10 68 -18 70 -18 2 0 -2 7 -9 15
-6 7 -32 17 -56 21 -24 3 -44 10 -44 15 0 14 -18 11 -22 -3z"/>
<path d="M274 213 c-2 -18 1 -21 11 -13 7 6 20 8 29 4 9 -3 16 -2 16 3 0 5
-12 13 -27 19 -26 9 -28 8 -29 -13z"/>
<path d="M1761 210 c-13 -11 -29 -20 -37 -20 -8 0 -14 -5 -14 -11 0 -6 7 -8
16 -5 9 3 28 9 42 12 53 11 55 13 42 29 -16 19 -20 19 -49 -5z"/>
<path d="M1260 191 c0 -5 13 -12 30 -16 16 -4 34 -13 38 -21 5 -9 15 -12 25
-8 27 10 20 19 -30 37 -55 20 -63 21 -63 8z"/>
<path d="M140 181 c0 -4 -11 -25 -25 -45 -17 -26 -21 -38 -12 -41 19 -6 250
-25 255 -21 2 3 -1 13 -7 24 -6 11 -8 28 -5 36 3 9 1 16 -4 16 -6 0 -12 -11
-14 -25 -4 -36 -22 -36 -28 0 -6 29 -6 29 -12 6 -4 -12 -11 -20 -16 -17 -6 3
-8 16 -4 28 3 14 2 19 -6 14 -7 -4 -12 -16 -12 -27 0 -10 -4 -19 -10 -19 -5 0
-10 12 -10 26 0 14 -4 23 -10 19 -5 -3 -10 -15 -10 -26 0 -12 -5 -19 -12 -16
-7 2 -13 13 -12 25 0 12 -3 19 -8 16 -4 -3 -8 -11 -8 -17 0 -7 -5 -19 -10 -27
-9 -13 -11 -13 -19 -1 -6 10 -5 24 5 42 17 33 17 39 4 39 -5 0 -10 -4 -10 -9z"/>
<path d="M2950 140 c-9 -16 -8 -20 5 -20 17 0 20 -16 5 -25 -5 -3 -6 -13 -3
-21 4 -11 1 -15 -13 -13 -10 2 -21 -1 -24 -6 -7 -14 40 -19 53 -6 21 21 18
111 -3 111 -5 0 -14 -9 -20 -20z"/>
<path d="M500 139 c0 -3 -18 -5 -40 -3 -25 1 -53 -4 -70 -14 -47 -27 -41 -35
33 -46 31 -4 37 -2 37 13 0 18 37 41 66 41 8 0 22 -9 31 -19 18 -22 35 -19 26
4 -3 8 0 15 6 15 6 0 11 3 11 8 0 4 -22 7 -50 7 -27 0 -50 -3 -50 -6z"/>
<path d="M1152 127 c-9 -10 -6 -17 8 -30 36 -30 21 -95 -19 -82 -16 5 -21 15
-22 43 0 33 -1 35 -10 14 -10 -26 -29 -21 -29 9 0 10 -4 19 -9 19 -5 0 -9 -16
-8 -35 1 -21 6 -35 13 -35 7 0 16 -5 19 -10 4 -7 -158 -10 -505 -9 -282 0
-514 -2 -518 -5 -3 -3 285 -6 639 -5 471 0 638 3 622 11 -13 6 -23 15 -23 19
0 4 -13 22 -30 40 -16 18 -27 35 -25 38 6 6 -15 31 -26 31 -5 0 -2 -11 7 -25
15 -23 15 -25 0 -25 -9 0 -21 11 -26 25 -10 27 -41 33 -58 12z m92 -71 c20
-19 36 -37 36 -39 0 -2 -20 -3 -45 -3 -44 1 -56 8 -35 21 7 4 7 12 0 25 -23
42 -4 40 44 -4z"/>
<path d="M798 124 c-11 -11 -10 -72 2 -79 5 -3 41 -7 80 -9 64 -3 69 -2 56 13
-7 9 -20 30 -29 46 -13 26 -16 27 -22 12 -4 -9 -2 -24 5 -32 17 -20 5 -32 -15
-15 -8 7 -15 9 -15 5 0 -4 -6 -3 -12 3 -7 6 -17 10 -23 9 -5 -1 -12 11 -15 26
-3 16 -8 25 -12 21z"/>
<path d="M948 123 c-24 -6 -23 -26 2 -48 11 -10 20 -24 20 -32 0 -8 11 -13 28
-13 l27 0 -32 26 c-32 24 -44 54 -23 54 6 0 10 5 10 10 0 10 -3 11 -32 3z"/>
<path d="M702 95 c-7 -15 -8 -26 -2 -30 6 -4 13 2 17 12 3 10 8 21 10 25 2 4
-1 9 -5 12 -5 3 -14 -6 -20 -19z"/>
<path d="M745 89 c-7 -33 -3 -45 14 -34 13 8 15 65 2 65 -5 0 -12 -14 -16 -31z"/>
<path d="M487 93 c-13 -13 -7 -32 8 -27 10 4 15 0 15 -12 0 -14 3 -15 12 -6 7
7 17 8 27 3 14 -8 171 -20 171 -14 0 1 -15 10 -32 20 -34 18 -88 25 -88 11 0
-15 -27 -8 -45 12 -18 19 -55 27 -68 13z"/>
<path d="M1357 25 c5 -22 10 -25 47 -24 l41 1 -30 10 c-16 6 -37 17 -46 25
-15 12 -16 11 -12 -12z"/>
<path d="M1650 21 c0 -16 50 -25 63 -11 9 9 6 11 -13 9 -14 -2 -31 0 -37 4 -7
5 -13 4 -13 -2z"/>
<path d="M2530 18 c0 -5 -11 -6 -24 -2 -13 3 -27 1 -30 -5 -4 -6 44 -10 144
-10 93 -1 150 3 150 9 0 11 -3 11 -142 14 -54 1 -98 -2 -98 -6z"/>
<path d="M2370 10 c0 -5 19 -10 42 -10 49 0 47 5 -4 14 -24 4 -38 3 -38 -4z"/>
</g>
</svg>
